<mxfile host="app.diagrams.net" modified="2023-05-15T06:58:47.669Z" agent="Mozilla/5.0 (Windows NT 10.0; Win64; x64; rv:109.0) Gecko/20100101 Firefox/113.0" version="21.3.0" etag="oq9t_OfnwjeruMSnoez2" type="github">
  <diagram name="Page-1" id="P46bUq6IPh0fBuMy0aGU">
    <mxGraphModel>
      <root>
        <mxCell id="0" />
        <mxCell id="1" parent="0" />
      </root>
    </mxGraphModel>
  </diagram>
</mxfile>
